<?xml version="1.0" standalone="no"?>
<!DOCTYPE svg PUBLIC "-//W3C//DTD SVG 20010904//EN"
 "http://www.w3.org/TR/2001/REC-SVG-20010904/DTD/svg10.dtd">
<svg version="1.0" xmlns="http://www.w3.org/2000/svg"
 width="1280.000000pt" height="942.000000pt" viewBox="0 0 1280.000000 942.000000"
 preserveAspectRatio="xMidYMid meet">
<g transform="translate(0.000000,942.000000) scale(0.100000,-0.100000)"
fill="#000000" stroke="none">
<path d="M3320 8549 c-1055 -39 -1907 -342 -2425 -863 -137 -138 -213 -240
-290 -388 -64 -124 -107 -244 -137 -381 -18 -86 -22 -134 -23 -302 0 -217 16
-322 72 -479 180 -502 684 -897 1323 -1040 745 -166 1680 -34 2348 331 75 40
86 50 105 91 33 75 33 119 0 182 -27 53 -31 56 -96 78 l-67 22 -148 -64 c-660
-285 -1318 -367 -1879 -231 -400 96 -720 332 -863 637 -72 154 -85 225 -84
453 1 182 3 209 26 296 111 411 402 728 898 975 316 157 648 245 1120 296 177
19 723 16 889 -5 295 -37 507 -95 710 -193 157 -75 267 -151 370 -253 235
-236 342 -524 343 -926 1 -286 -40 -531 -172 -1030 -100 -381 -606 -2293 -931
-3523 -137 -519 -249 -958 -249 -976 0 -92 68 -206 134 -225 41 -11 442 39
521 65 38 13 67 34 121 88 85 87 154 217 209 401 93 303 131 421 187 570 205
552 595 1332 1062 2125 1056 1790 1836 2845 2434 3290 193 144 349 210 496
210 73 0 91 -4 145 -31 98 -49 151 -142 151 -265 0 -233 -209 -975 -590 -2094
-517 -1518 -617 -1830 -741 -2315 -128 -503 -173 -781 -174 -1065 0 -199 11
-280 62 -435 97 -300 320 -559 598 -696 421 -208 1005 -112 1477 244 329 248
723 706 1356 1576 599 823 679 955 690 1123 5 87 -27 257 -54 278 -22 19 -101
25 -119 10 -9 -7 -116 -162 -239 -344 -1114 -1656 -1719 -2349 -2221 -2546
-87 -34 -95 -35 -221 -35 -130 0 -130 0 -205 37 -175 87 -281 265 -309 519
-24 213 24 550 149 1054 151 606 327 1159 776 2435 354 1007 458 1323 549
1680 64 250 80 353 73 480 -23 411 -272 719 -662 819 -456 116 -879 -31 -1392
-482 -645 -568 -1426 -1657 -2492 -3474 -102 -174 -131 -214 -131 -183 0 6 54
198 119 428 182 636 269 971 349 1347 149 696 159 1050 37 1420 -231 707 -984
1155 -2123 1265 -103 10 -590 31 -637 28 -11 -1 -112 -5 -225 -9z"/>
</g>
</svg>
